/* XPM */
static char *dummy[]={
"200 80 2 1",
"# c None",
". c #5a4bac",
"........................................................................................................................................................................................................",
"........................................................................................................................................................................................................",
"........................................................................................................................................................................................................",
"........................................................................................................................................................................................................",
"........................................................................................................................................................................................................",
"........................................................................................................................................................................................................",
"........................................................................................................................................................................................................",
"........................................................................................................................................................................................................",
"........................................................................................................................................................................................................",
"........................................................................................................................................................................................................",
"........................................................................................................................................................................................................",
"........................................................................................................................................................................................................",
"........................................................................................................................................................................................................",
"........................................................................................................................................................................................................",
"........................................................................................................................................................................................................",
"........................................................................................................................................................................................................",
"........................................................................................................................................................................................................",
"........................................................................................................................................................................................................",
"........................................................................................................................................................................................................",
"........................................................................................................................................................................................................",
"........................................................................................................................................................................................................",
".....................###############################################################################################################################################################....................",
".....................###############################################################################################################################################################....................",
".....................###############################################################################################################################################################....................",
".....................###############################################################################################################################################################....................",
".....................###############################################################################################################################################################....................",
".....................###############################################################################################################################################################....................",
".....................###############################################################################################################################################################....................",
".....................###############################################################################################################################################################....................",
".....................###############################################################################################################################################################....................",
".....................###############################################################################################################################################################....................",
".....................###############################################################################################################################################################....................",
".....................###############################################################################################################################################################....................",
".....................###############################################################################################################################################################....................",
".....................###############################################################################################################################################################....................",
".....................###############################################################################################################################################################....................",
".....................###############################################################################################################################################################....................",
".....................###############################################################################################################################################################....................",
".....................###############################################################################################################################################################....................",
".....................###############################################################################################################################################################....................",
".....................###############################################################################################################################################################....................",
".....................###############################################################################################################################################################....................",
".....................###############################################################################################################################################################....................",
".....................###############################################################################################################################################################....................",
".....................###############################################################################################################################################################....................",
".....................###############################################################################################################################################################....................",
".....................###############################################################################################################################################################....................",
".....................###############################################################################################################################################################....................",
".....................###############################################################################################################################################################....................",
".....................###############################################################################################################################################################....................",
".....................###############################################################################################################################################################....................",
".....................###############################################################################################################################################################....................",
".....................###############################################################################################################################################################....................",
".....................###############################################################################################################################################################....................",
".....................###############################################################################################################################################################....................",
".....................###############################################################################################################################################################....................",
".....................###############################################################################################################################################################....................",
".....................###############################################################################################################################################################....................",
".....................###############################################################################################################################################################....................",
".....................###############################################################################################################################################################....................",
"........................................................................................................................................................................................................",
"........................................................................................................................................................................................................",
"........................................................................................................................................................................................................",
"........................................................................................................................................................................................................",
"........................................................................................................................................................................................................",
"........................................................................................................................................................................................................",
"........................................................................................................................................................................................................",
"........................................................................................................................................................................................................",
"........................................................................................................................................................................................................",
"........................................................................................................................................................................................................",
"........................................................................................................................................................................................................",
"........................................................................................................................................................................................................",
"........................................................................................................................................................................................................",
"........................................................................................................................................................................................................",
"........................................................................................................................................................................................................",
"........................................................................................................................................................................................................",
"........................................................................................................................................................................................................",
"........................................................................................................................................................................................................",
"........................................................................................................................................................................................................",
"........................................................................................................................................................................................................"};
